<svg width="390" height="844" viewBox="0 0 390 844" fill="none" xmlns="http://www.w3.org/2000/svg">
    <defs>
        <linearGradient id="paint0_linear_719_245040" x1="225.9" y1="403.426" x2="225.9" y2="431.162" gradientUnits="userSpaceOnUse">
            <stop stop-color="#0B1B34"/>
            <stop offset="1" stop-color="#103166" stop-opacity="0.83"/>
        </linearGradient>
        <clipPath id="clip0_719_245040">
            <rect width="390" height="844" fill="white"/>
        </clipPath>
    </defs>
    <g clip-path="url(#clip0_719_245040)">
<rect width="390" height="844" fill="white"/>
<path opacity="0.7" d="M-228.38 682.314C-148.509 594.734 -19.7565 460.158 107.555 730.521C197.714 921.984 216.747 927.843 136.876 1015.42C57.0045 1103 -89.5096 1099.43 -190.372 1007.45C-291.235 915.46 -308.252 769.894 -228.38 682.314Z" fill="#E8F8FF"/>
<path opacity="0.7" d="M338.62 -53.6859C418.491 -141.266 547.244 -275.842 674.555 -5.47875C764.714 185.984 783.747 191.843 703.876 279.423C624.004 367.003 477.49 363.431 376.628 271.446C275.765 179.46 258.748 33.8938 338.62 -53.6859Z" fill="#ECF7F3"/>
<path fill-rule="evenodd" clip-rule="evenodd" d="M89.998 433.291C89.5713 434.812 89.3353 435.063 88.074 435.343C86.7496 435.637 86.6798 435.908 87.7007 436.791C88.5817 437.553 88.6085 437.924 87.8862 439.346C87.5871 439.935 87.3424 440.497 87.3424 440.595C87.3424 440.82 88.0132 440.657 89.396 440.095C89.9777 439.859 90.5964 439.71 90.7708 439.766C90.9451 439.821 91.5705 440.312 92.1608 440.857C92.7508 441.402 93.3048 441.849 93.3914 441.851C93.5388 441.855 93.5054 441.257 93.2201 438.772C93.1068 437.785 93.1153 437.761 93.9603 436.735C94.4384 436.154 94.772 435.584 94.7171 435.441C94.6592 435.29 94.1091 435.095 93.3733 434.963L92.1276 434.741L91.3211 433.496C90.8775 432.812 90.4642 432.251 90.4026 432.25C90.341 432.249 90.1588 432.717 89.998 433.291Z" fill="#F4BB44"/>
<path d="M113.989 440.677C113.989 440.623 114.207 440.25 114.473 439.848L114.956 439.117L115.198 439.691C115.331 440.007 115.439 440.421 115.439 440.61C115.439 440.799 115.515 441.096 115.607 441.269C115.7 441.442 115.819 441.726 115.873 441.9C116.006 442.329 117.05 442.942 117.649 442.942C117.917 442.943 118.187 443.025 118.249 443.124C118.311 443.224 118.519 443.306 118.713 443.306C119.251 443.306 119.141 443.538 118.233 444.316C117.047 445.332 116.959 445.666 117.553 446.906C117.823 447.468 118.191 448.145 118.372 448.409C118.745 448.953 118.814 449.29 118.485 448.961C118.365 448.842 118.003 448.744 117.68 448.744C117.356 448.744 117.042 448.662 116.98 448.563C116.918 448.463 116.685 448.381 116.462 448.381C116.238 448.381 115.978 448.308 115.883 448.219C115.789 448.13 115.433 447.998 115.094 447.926C114.498 447.801 114.422 447.852 112.938 449.398L111.4 450.999L111.514 450.008C111.671 448.651 111.932 447.102 112.084 446.632C112.243 446.136 111.997 445.686 110.781 444.253C109.667 442.94 109.694 442.682 110.96 442.516C112.899 442.262 113.044 442.204 113.524 441.478C113.78 441.092 113.989 440.731 113.989 440.677Z" fill="#6AC6F0"/>
<path d="M101.47 397.448C101.743 397.322 101.847 397.155 102.208 396.265L102.428 395.721L102.724 396.174C103.434 397.263 103.957 397.624 104.822 397.624C105.278 397.624 105.652 397.673 105.652 397.732C105.652 397.792 105.326 398.211 104.927 398.664C104.164 399.53 103.988 400.331 104.394 401.089C104.5 401.287 104.561 401.652 104.53 401.901C104.474 402.351 104.469 402.349 103.658 401.625C102.732 400.799 102.323 400.735 101.258 401.25C100.239 401.742 100.195 401.719 100.593 400.896C101.101 399.843 101.044 399.195 100.395 398.649C99.7853 398.136 99.7246 397.987 100.126 397.987C100.276 397.987 100.582 397.892 100.805 397.777C101.028 397.662 101.328 397.514 101.47 397.448Z" fill="#A4C754"/>
<path fill-rule="evenodd" clip-rule="evenodd" d="M116.535 394.317C116.219 394.689 115.962 395.37 115.662 396.628C115.543 397.127 115.382 397.739 115.303 397.988C115.224 398.237 115.057 398.808 114.93 399.257C114.596 400.444 113.952 402.392 113.317 404.134C113.011 404.972 112.761 405.682 112.761 405.712C112.761 405.742 112.548 405.979 112.288 406.24C111.745 406.783 111.354 406.959 109.589 407.453C107.5 408.04 107.358 408.077 103.981 408.94C98.7556 410.276 98.6858 410.579 102.791 414.12C103.539 414.765 105.069 416.193 106.19 417.294L108.23 419.296V420.207C108.23 420.708 108.161 421.196 108.077 421.291C107.994 421.385 107.816 421.748 107.683 422.097C106.802 424.405 105.053 427.891 102.843 431.744C102.001 433.213 101.891 433.949 102.46 434.305C102.684 434.445 103.107 434.384 104.091 434.07C104.822 433.836 105.746 433.542 106.145 433.417C106.544 433.292 107.237 433.051 107.686 432.882C108.134 432.714 108.95 432.411 109.499 432.21C110.047 432.009 110.74 431.738 111.039 431.608C111.338 431.477 112.025 431.197 112.565 430.984C113.602 430.577 114.565 430.153 116.206 429.383C116.802 429.104 117.537 428.911 118.035 428.905C118.842 428.895 119.528 429.292 120.778 430.493C120.905 430.616 121.242 430.895 121.526 431.114C122.612 431.954 126.224 435.241 128.946 437.868C131.188 440.032 131.304 440.115 131.879 439.971C132.47 439.822 132.562 439.433 132.35 437.969C132.248 437.266 132.033 435.752 131.873 434.605C131.38 431.071 131.273 430.358 131.183 429.983C131.135 429.783 131.008 429.131 130.902 428.532C130.697 427.379 130.227 425.027 129.959 423.819C129.318 420.923 129.413 420.316 130.708 419.017C130.858 418.867 131.592 418.05 132.34 417.203C133.087 416.355 133.741 415.621 133.794 415.571C133.846 415.522 134.17 415.114 134.514 414.665C134.858 414.216 135.187 413.809 135.246 413.759C135.57 413.484 137.866 410.322 138.104 409.822C138.349 409.308 138.352 409.171 138.128 408.752C137.768 408.079 137.263 407.795 136.033 407.573C135.447 407.467 134.6 407.307 134.152 407.217C133.237 407.033 131.766 406.773 130.209 406.519C126.181 405.862 125.716 405.747 125.096 405.256C124.751 404.982 124.335 404.52 124.17 404.228C122.775 401.76 121.774 400.061 120.867 398.622C117.999 394.075 117.939 394 117.152 394C116.961 394 116.684 394.143 116.535 394.317ZM125.034 410.36C126.283 410.918 126.781 411.761 126.785 413.32C126.787 414.173 126.696 414.552 126.384 414.99C125.731 415.906 125.002 416.327 124.066 416.327C123.015 416.327 122.798 416.122 123.27 415.577C124.161 414.55 124.066 412.922 123.066 412.082C122.74 411.808 122.327 411.583 122.149 411.583C121.767 411.583 121.739 411.407 122.055 410.976C122.617 410.208 124.036 409.914 125.034 410.36ZM115.777 411.478C116.207 411.847 116.598 412.393 116.741 412.827C117.387 414.784 115.943 417.022 114.034 417.022C113.2 417.022 113.114 416.796 113.707 416.164C114.025 415.825 114.11 415.516 114.115 414.671C114.122 413.352 113.694 412.687 112.609 412.337C112.194 412.202 111.855 412.025 111.855 411.942C111.855 411.859 112.12 411.582 112.444 411.327C112.915 410.955 113.236 410.862 114.043 410.86C114.932 410.859 115.139 410.932 115.777 411.478ZM111.818 418.284C112.296 419.279 113.785 420.769 114.846 421.315C116.507 422.168 116.597 422.188 118.726 422.185C120.735 422.182 120.882 422.155 122.033 421.586C122.711 421.25 123.624 420.595 124.118 420.089C125.013 419.173 125.659 418.977 125.776 419.587C125.879 420.128 123.832 421.928 122.369 422.583C121.01 423.191 120.552 423.275 118.653 423.266C116.293 423.254 115.385 422.992 113.668 421.829C112.385 420.959 111.394 419.882 110.791 418.699C110.356 417.846 110.296 417.27 110.631 417.156C111.014 417.026 111.383 417.377 111.818 418.284Z" fill="#C05698"/>
<path fill-rule="evenodd" clip-rule="evenodd" d="M170.153 403.544C170.086 403.611 170.032 409.771 170.032 417.235V430.805L172.978 430.755L175.923 430.705L176.014 426.536L176.105 422.367L177.736 424.862C178.633 426.234 179.856 428.13 180.454 429.076L181.539 430.795H185.05C188.116 430.795 188.547 430.761 188.455 430.52C188.344 430.231 186.904 428.051 186.72 427.895C186.662 427.845 186.091 427.07 185.452 426.173C184.812 425.276 183.733 423.79 183.052 422.872C182.372 421.953 181.815 421.111 181.815 420.999C181.815 420.837 183.797 418.105 184.176 417.744C184.554 417.384 187.978 412.67 187.978 412.509C187.978 412.366 186.97 412.306 184.579 412.306L181.18 412.306L179.259 415.252C178.202 416.872 177.1 418.584 176.811 419.058C176.522 419.531 176.225 419.919 176.15 419.919C176.075 419.919 176.014 416.257 176.014 411.781C176.014 404.528 175.983 403.631 175.727 403.533C175.336 403.383 170.304 403.393 170.153 403.544ZM234.872 403.54C234.803 403.609 234.746 409.769 234.746 417.23V430.795H237.648H240.549L240.503 417.155L240.456 403.514L237.727 403.464C236.225 403.437 234.941 403.471 234.872 403.54ZM245.386 403.54C245.316 403.609 245.26 409.769 245.26 417.23V430.795H248.16H251.061V429.98C251.061 429.531 251.11 429.164 251.171 429.164C251.231 429.164 251.439 429.366 251.633 429.613C251.827 429.859 252.503 430.308 253.135 430.61C254.173 431.104 254.458 431.158 256.059 431.158C259.131 431.158 261.121 430.153 262.697 427.804C264.483 425.142 265.007 420.088 263.843 416.747C263.084 414.571 261.414 412.796 259.511 412.143C258.581 411.825 255.517 411.82 254.592 412.136C253.67 412.451 252.065 413.484 251.622 414.046C251.434 414.285 251.232 414.481 251.173 414.481C251.114 414.481 251.044 412.013 251.018 408.997L250.97 403.514L248.241 403.464C246.739 403.437 245.454 403.471 245.386 403.54ZM156.346 404.681C151.637 405.316 148.822 408.163 148.823 412.288C148.824 414.86 149.965 416.917 152.232 418.435C153.21 419.09 153.721 419.354 155.304 420.026C158.117 421.221 159.689 422.291 160.059 423.265C160.327 423.969 160.071 424.955 159.496 425.439C158.847 425.985 157.296 426.445 156.103 426.445C154.228 426.445 151.686 425.61 149.973 424.431C149.538 424.132 149.102 423.938 149.003 423.999C148.724 424.171 148.767 429.618 149.05 429.847C149.174 429.948 149.684 430.171 150.183 430.342C151.986 430.961 153.429 431.158 156.165 431.158C160.674 431.158 162.719 430.529 164.684 428.538C166.155 427.048 166.588 425.902 166.588 423.501C166.588 421.758 166.519 421.444 165.805 419.953C165.228 418.747 163.473 417.23 161.598 416.318C160.703 415.883 159.227 415.163 158.318 414.718C156.218 413.691 155.266 412.771 155.266 411.768C155.266 410.914 155.758 410.319 156.911 409.777C157.528 409.487 158.066 409.405 159.359 409.405C161.389 409.405 162.266 409.611 164.221 410.544C164.764 410.803 165.273 410.974 165.354 410.925C165.434 410.875 165.5 409.633 165.5 408.165V405.497L164.639 405.26C164.166 405.129 163.533 404.945 163.234 404.85C162.5 404.616 157.699 404.498 156.346 404.681ZM197.314 411.955C194.722 412.242 193.111 412.969 191.497 414.582C190.405 415.673 189.727 416.832 189.225 418.469C188.897 419.54 188.891 423.531 189.216 424.632C189.806 426.63 190.915 428.311 192.35 429.382C193.083 429.929 194.671 430.693 195.501 430.897C196.535 431.152 200.718 431.196 201.755 430.962C204.923 430.249 207.07 428.323 208.415 424.987C208.845 423.922 209.064 421.242 208.84 419.786C208.464 417.333 207.864 416.058 206.375 414.55C205.202 413.362 203.895 412.595 202.407 412.22C201.153 411.905 198.853 411.785 197.314 411.955ZM219.791 411.96C218.125 412.127 217.627 412.25 216.459 412.784C214.163 413.833 212.792 415.337 211.772 417.925C211.674 418.174 211.488 419.092 211.358 419.964C211.165 421.265 211.165 421.836 211.358 423.137C211.604 424.792 211.67 425.009 212.408 426.601C213.341 428.613 215.726 430.394 218.25 430.962C219.289 431.196 223.411 431.146 224.567 430.886C226.76 430.392 229.159 428.474 230.158 426.415C231.047 424.584 231.199 423.852 231.205 421.383C231.214 418.1 230.577 416.329 228.721 414.473C227.732 413.484 225.735 412.306 225.048 412.306C224.885 412.306 224.615 412.235 224.447 412.149C224.006 411.923 221.27 411.812 219.791 411.96ZM295.201 411.954C291.471 412.341 289.127 414.292 288.82 417.265C288.636 419.046 289.431 420.928 290.792 421.932C291.634 422.554 293.217 423.295 294.802 423.808C297.551 424.699 298.189 425.888 296.381 426.747C294.94 427.432 293.07 427.249 290.488 426.17C289.69 425.836 288.974 425.626 288.896 425.702C288.818 425.778 288.777 426.844 288.805 428.07L288.856 430.299L289.762 430.558C290.261 430.701 290.919 430.894 291.226 430.988C292.137 431.267 296.759 431.196 297.956 430.885C300.191 430.304 301.768 429.2 302.595 427.639C302.922 427.021 302.987 426.597 302.986 425.085C302.984 423.529 302.926 423.173 302.572 422.57C302.07 421.714 301.943 421.586 300.911 420.902C299.907 420.237 299.22 419.915 297.648 419.375C295.898 418.775 295.303 418.451 294.897 417.88C294.557 417.402 294.552 417.34 294.825 416.923C295.621 415.707 298.161 415.623 300.797 416.725C302.012 417.233 301.998 417.255 301.998 414.88C301.998 412.552 301.907 412.306 301.044 412.306C300.758 412.306 300.387 412.235 300.219 412.149C299.775 411.922 296.677 411.802 295.201 411.954ZM267.62 412.582C267.562 412.734 267.554 415.814 267.604 419.425C267.689 425.669 267.713 426.053 268.11 427.231C268.394 428.076 268.781 428.754 269.327 429.36C270.065 430.182 270.357 430.371 271.78 430.951C272.059 431.065 273.067 431.158 274.02 431.158C275.575 431.158 275.871 431.102 276.902 430.609C277.535 430.308 278.37 429.737 278.758 429.34C279.146 428.944 279.518 428.62 279.583 428.62C279.648 428.62 279.702 429.11 279.702 429.708V430.795H282.602H285.503V421.551V412.306H282.602H279.702V417.639C279.702 423.924 279.609 424.552 278.516 425.645C276.902 427.262 274.405 426.664 273.758 424.508C273.606 424 273.539 422.007 273.539 418.04V412.306H270.633C268.195 412.306 267.709 412.35 267.62 412.582ZM201.102 417.031C202.292 417.847 202.836 419.199 202.84 421.348C202.844 423.676 202.361 424.99 201.141 425.978C200.496 426.5 200.358 426.535 198.973 426.53C197.672 426.526 197.407 426.466 196.765 426.035C195.936 425.478 195.512 424.843 195.133 423.595C194.467 421.399 195.174 418.383 196.629 417.22C197.427 416.582 197.828 416.479 199.261 416.549C200.178 416.593 200.638 416.714 201.102 417.031ZM223.646 417.145C224.009 417.439 224.435 417.919 224.592 418.21C225.968 420.773 225.248 425.176 223.29 426.169C221.926 426.861 219.867 426.685 218.798 425.786C217.772 424.922 217.435 423.898 217.435 421.641C217.435 420.044 217.504 419.503 217.784 418.922C218.498 417.441 218.833 417.123 220.244 416.585C220.394 416.528 221.072 416.51 221.75 416.545C222.794 416.6 223.086 416.692 223.646 417.145ZM256.777 417.102C257.737 417.834 258.194 418.99 258.279 420.902C258.383 423.273 257.901 424.723 256.653 425.791C254.914 427.28 252.493 426.704 251.496 424.563C251.125 423.765 251.064 423.358 251.063 421.659C251.061 419.922 251.116 419.565 251.517 418.719C251.974 417.752 252.878 416.859 253.643 416.618C253.868 416.548 254.524 416.52 255.101 416.556C255.887 416.606 256.306 416.743 256.777 417.102Z" fill="url(#paint0_linear_719_245040)"/>
</g>

</svg>
