<svg width="40" height="47" viewBox="0 0 40 47" fill="none" xmlns="http://www.w3.org/2000/svg">
<path fill-rule="evenodd" clip-rule="evenodd" d="M17.5355 0.317227C17.2192 0.688654 16.9616 1.37024 16.6618 2.62845C16.543 3.12695 16.3815 3.73874 16.3028 3.98799C16.2244 4.23724 16.0567 4.80825 15.9303 5.2569C15.5961 6.44406 14.9516 8.39165 14.3166 10.1339C14.0112 10.9717 13.7614 11.6817 13.7614 11.7117C13.7614 11.7417 13.5482 11.9794 13.2877 12.2399C12.7448 12.7828 12.3538 12.9586 10.5891 13.4535C8.50015 14.0396 8.35785 14.0773 4.98111 14.9401C-0.244433 16.2757 -0.314224 16.5794 3.79142 20.1202C4.53917 20.7649 6.06874 22.1934 7.19028 23.2942L9.22959 25.2957V26.2071C9.22959 26.7083 9.16107 27.1958 9.07732 27.2906C8.99357 27.3852 8.81611 27.7483 8.68287 28.0972C7.80153 30.4054 6.05279 33.8914 3.84344 37.7444C3.00107 39.2134 2.89086 39.9488 3.45987 40.3048C3.68429 40.4453 4.10738 40.3842 5.09132 40.0696C5.82203 39.8359 6.74616 39.5422 7.14496 39.4168C7.54376 39.2915 8.23712 39.0512 8.68577 38.8824C9.13442 38.7138 9.95015 38.4113 10.4985 38.2102C11.0469 38.0092 11.7402 37.738 12.0393 37.6075C12.3384 37.4772 13.0253 37.1966 13.5655 36.9843C14.602 36.5768 15.5651 36.1533 17.2056 35.3835C17.8016 35.1038 18.5374 34.9114 19.035 34.9053C19.8424 34.8953 20.5278 35.2921 21.7782 36.4934C21.9053 36.6156 22.2417 36.8947 22.5256 37.1141C23.6123 37.9536 27.2241 41.2409 29.946 43.8679C32.1881 46.0322 32.3036 46.1148 32.8788 45.9705C33.4704 45.8221 33.562 45.4332 33.3499 43.9693C33.248 43.2656 33.0334 41.7516 32.8733 40.605C32.3795 37.0706 32.2731 36.358 32.1827 35.9826C32.1348 35.7832 32.0085 35.1306 31.9023 34.5324C31.6974 33.3793 31.2268 31.027 30.9594 29.8193C30.3181 26.9231 30.4129 26.3157 31.7081 25.0171C31.8582 24.8668 32.5924 24.0503 33.3396 23.2029C34.0869 22.3554 34.7413 21.6213 34.7937 21.5714C34.8461 21.5216 35.1702 21.1137 35.5141 20.6651C35.858 20.2164 36.1873 19.8085 36.2461 19.7587C36.5702 19.4837 38.8656 16.3221 39.104 15.8224C39.3493 15.3081 39.3524 15.1712 39.128 14.7521C38.7678 14.0789 38.2633 13.795 37.0326 13.573C36.4468 13.4671 35.6002 13.307 35.1516 13.2169C34.2367 13.0333 32.7656 12.773 31.2089 12.519C27.1812 11.8621 26.716 11.7472 26.0959 11.2556C25.7515 10.9824 25.3347 10.5201 25.17 10.2285C23.7753 7.75955 22.7745 6.06066 21.8674 4.62245C18.9995 0.0750467 18.9391 0 18.152 0C17.9615 0 17.684 0.142843 17.5355 0.317227ZM26.0341 16.3598C27.2827 16.9178 27.781 17.7607 27.7848 19.3204C27.7868 20.1727 27.6956 20.5518 27.3837 20.9901C26.7311 21.9064 26.0024 22.3268 25.0659 22.3268C24.0154 22.3268 23.7979 22.1218 24.27 21.5774C25.1609 20.5501 25.0659 18.9225 24.0662 18.0819C23.7401 17.8077 23.3273 17.5834 23.1491 17.5834C22.7667 17.5834 22.7393 17.4072 23.0547 16.976C23.6166 16.2076 25.0364 15.9139 26.0341 16.3598ZM16.7765 17.4779C17.2072 17.8466 17.5977 18.3926 17.7409 18.8266C18.3868 20.7838 16.9427 23.0216 15.0339 23.0216C14.1999 23.0216 14.1136 22.7957 14.7069 22.1642C15.0254 21.8252 15.1097 21.5163 15.1148 20.6709C15.1224 19.3521 14.6935 18.687 13.6093 18.3366C13.1944 18.2025 12.855 18.025 12.855 17.942C12.855 17.859 13.1201 17.582 13.4442 17.3267C13.9153 16.9553 14.2356 16.862 15.043 16.8603C15.9318 16.8585 16.1393 16.9325 16.7765 17.4779ZM12.8181 24.2842C13.2955 25.2792 14.7845 26.7694 15.846 27.3147C17.5074 28.1679 17.5969 28.1879 19.726 28.1848C21.7347 28.1819 21.8817 28.1552 23.0335 27.5855C23.7109 27.2503 24.624 26.5948 25.1181 26.0889C26.0125 25.1729 26.6595 24.977 26.7757 25.5868C26.8788 26.1284 24.8324 27.9281 23.3688 28.583C22.01 29.1908 21.5521 29.275 19.6528 29.2655C17.2926 29.2536 16.385 28.992 14.6678 27.8286C13.3847 26.9594 12.3944 25.8823 11.791 24.6993C11.3556 23.8457 11.2959 23.2701 11.6315 23.1561C12.0136 23.0261 12.3828 23.3773 12.8181 24.2842Z" fill="#C05698"/>
</svg>
