
<svg width="155" height="29" viewBox="0 0 155 29" fill="none" xmlns="http://www.w3.org/2000/svg">
    <defs>
        <linearGradient id="paint0_linear_719_245090" x1="77.9001" y1="0.425781" x2="77.9001" y2="28.1622" gradientUnits="userSpaceOnUse">
            <stop stop-color="#0B1B34"/>
            <stop offset="1" stop-color="#103166" stop-opacity="0.83"/>
        </linearGradient>
    </defs>

    <path fill-rule="evenodd" clip-rule="evenodd" d="M22.1529 0.54426C22.0864 0.610606 22.032 6.77133 22.032 14.2347V27.8046L24.9777 27.7547L27.9234 27.7049L28.014 23.5358L28.1046 19.3665L29.7361 21.8617C30.6334 23.234 31.8563 25.1304 32.4535 26.0761L33.5394 27.7955H37.0501C40.1165 27.7955 40.5472 27.7607 40.4549 27.52C40.3438 27.2307 38.9038 25.0512 38.7205 24.8951C38.6619 24.8453 38.0909 24.0703 37.4518 23.173C36.8124 22.2757 35.7326 20.7902 35.0521 19.8719C34.3716 18.9534 33.8147 18.1107 33.8147 17.9988C33.8147 17.8367 35.7966 15.1046 36.176 14.7439C36.5541 14.3842 39.978 9.67006 39.978 9.50891C39.978 9.36607 38.9696 9.30588 36.5791 9.30607L33.1803 9.30643L31.2586 12.2517C30.2016 13.8716 29.1004 15.5844 28.8114 16.0577C28.5223 16.5312 28.2248 16.9186 28.15 16.9188C28.0751 16.919 28.014 13.2571 28.014 8.78128C28.014 1.52784 27.9828 0.631452 27.7272 0.533384C27.3364 0.383472 22.3039 0.393079 22.1529 0.54426ZM86.8717 0.539728C86.8027 0.608611 86.7463 6.76934 86.7463 14.2303V27.7955H89.6477H92.5493L92.5028 14.1547L92.4564 0.513987L89.7268 0.464137C88.2255 0.436765 86.9406 0.470663 86.8717 0.539728ZM97.3855 0.539728C97.3165 0.608611 97.2601 6.76934 97.2601 14.2303V27.7955H100.16H103.061V26.9798C103.061 26.5311 103.11 26.164 103.171 26.164C103.231 26.164 103.439 26.3658 103.633 26.6125C103.827 26.859 104.503 27.3077 105.135 27.6095C106.173 28.1044 106.458 28.158 108.059 28.158C111.131 28.158 113.121 27.1529 114.697 24.8045C116.483 22.1423 117.007 17.0883 115.843 13.7469C115.084 11.5712 113.414 9.79604 111.511 9.14346C110.581 8.8246 107.517 8.82007 106.592 9.13639C105.67 9.45126 104.065 10.484 103.622 11.0465C103.434 11.2854 103.232 11.481 103.173 11.481C103.114 11.481 103.044 9.01331 103.018 5.99748L102.97 0.513987L100.241 0.464137C98.7393 0.436765 97.4544 0.470663 97.3855 0.539728ZM8.34594 1.68084C3.63739 2.31602 0.822229 5.16308 0.823498 9.28848C0.824404 11.8604 1.96497 13.9173 4.23214 15.4353C5.21029 16.09 5.72057 16.3545 7.30362 17.0265C10.117 18.2207 11.6888 19.2911 12.0591 20.2651C12.3267 20.969 12.0714 21.9547 11.4959 22.4389C10.8468 22.9851 9.29563 23.445 8.10268 23.445C6.22814 23.445 3.68561 22.6098 1.97276 21.4312C1.53825 21.1323 1.10175 20.9376 1.00296 20.9987C0.723796 21.1713 0.767482 26.6183 1.04972 26.8473C1.17444 26.9482 1.68418 27.171 2.18268 27.3421C3.98597 27.9612 5.42927 28.158 8.16467 28.158C12.6742 28.158 14.7189 27.5292 16.6845 25.5377C18.1548 24.0479 18.5878 22.902 18.5878 20.5007C18.5878 18.7576 18.5186 18.4438 17.8055 16.9532C17.2283 15.7467 15.473 14.2302 13.5981 13.3182C12.7034 12.8829 11.2273 12.1629 10.3176 11.7179C8.21796 10.6908 7.26646 9.77085 7.26646 8.76751C7.26646 7.91371 7.75772 7.31896 8.91079 6.77695C9.52766 6.4871 10.0658 6.40534 11.3592 6.40534C13.3889 6.40534 14.2656 6.61072 16.2208 7.5441C16.7635 7.80314 17.2732 7.97444 17.3537 7.92459C17.4344 7.87492 17.5002 6.6332 17.5002 5.16526V2.49656L16.6391 2.25964C16.1657 2.12931 15.5334 1.94495 15.2343 1.84978C14.5 1.61612 9.69914 1.49848 8.34594 1.68084ZM49.3135 8.95512C46.7219 9.24153 45.1109 9.96898 43.4968 11.5818C42.4049 12.6728 41.7273 13.8324 41.2251 15.469C40.8967 16.5399 40.8907 20.5312 41.2159 21.6322C41.8061 23.6302 42.915 25.3106 44.3501 26.3818C45.0828 26.9286 46.6715 27.6925 47.5008 27.897C48.5353 28.1521 52.718 28.1956 53.7547 27.9621C56.923 27.2486 59.0698 25.3226 60.415 21.9872C60.8446 20.9222 61.0636 18.2421 60.8403 16.7861C60.4638 14.3326 59.8638 13.0582 58.3746 11.5497C57.2025 10.3623 55.895 9.59465 54.4065 9.22014C53.1532 8.90455 50.8527 8.78491 49.3135 8.95512ZM71.7913 8.96002C70.1247 9.12715 69.6271 9.25023 68.4593 9.78408C66.1632 10.8335 64.792 12.3375 63.7722 14.9251C63.6739 15.1744 63.4876 16.0922 63.358 16.9645C63.1649 18.2655 63.1649 18.8357 63.358 20.1367C63.6038 21.7918 63.6697 22.0093 64.4077 23.6007C65.3411 25.613 67.7264 27.3936 70.2505 27.9621C71.2888 28.1959 75.4106 28.1461 76.5673 27.8858C78.7598 27.3923 81.1589 25.4738 82.1579 23.4154C83.0469 21.5838 83.1991 20.8524 83.2055 18.3833C83.214 15.1004 82.577 13.3285 80.7211 11.4732C79.7318 10.484 77.7347 9.3057 77.0477 9.3057C76.8852 9.3057 76.6151 9.23519 76.4471 9.14926C76.0055 8.92267 73.2703 8.81155 71.7913 8.96002ZM147.201 8.9544C143.471 9.34051 141.127 11.2915 140.82 14.2648C140.636 16.046 141.431 17.9279 142.792 18.9324C143.634 19.5545 145.217 20.2946 146.802 20.8083C149.551 21.6991 150.189 22.8877 148.381 23.7475C146.94 24.4323 145.07 24.2491 142.488 23.1696C141.69 22.8364 140.974 22.6258 140.896 22.7019C140.818 22.7781 140.777 23.8436 140.805 25.0697L140.856 27.2994L141.762 27.5582C142.261 27.7007 142.919 27.8937 143.226 27.9876C144.137 28.2666 148.759 28.1959 149.956 27.8847C152.191 27.3037 153.768 26.2001 154.595 24.639C154.922 24.021 154.987 23.5974 154.986 22.0854C154.984 20.5292 154.926 20.1734 154.572 19.5704C154.07 18.7143 153.943 18.5861 152.911 17.902C151.907 17.2366 151.22 16.9153 149.648 16.3753C147.898 15.7746 147.303 15.4512 146.897 14.8802C146.557 14.4024 146.552 14.3396 146.825 13.9229C147.621 12.7073 150.161 12.6232 152.797 13.7253C154.012 14.2334 153.998 14.2548 153.998 11.8798C153.998 9.55241 153.907 9.3057 153.044 9.3057C152.758 9.3057 152.387 9.23537 152.219 9.14926C151.775 8.92177 148.677 8.80158 147.201 8.9544ZM119.62 9.58214C119.562 9.73423 119.554 12.8137 119.604 16.4252C119.689 22.6689 119.713 23.0527 120.11 24.2311C120.394 25.076 120.781 25.7536 121.327 26.3602C122.065 27.1817 122.357 27.3713 123.78 27.9512C124.059 28.0651 125.067 28.158 126.02 28.158C127.575 28.158 127.871 28.1017 128.902 27.6093C129.535 27.3075 130.37 26.7365 130.758 26.3404C131.146 25.9443 131.518 25.6202 131.583 25.6202C131.648 25.6202 131.702 26.1097 131.702 26.7079V27.7955H134.602H137.503V18.5506V9.3057H134.602H131.702V14.6395C131.702 20.9244 131.609 21.5517 130.516 22.6454C128.902 24.2616 126.405 23.6645 125.758 21.5075C125.606 21.0005 125.539 19.0069 125.539 15.0401V9.3057H122.633C120.195 9.3057 119.709 9.3503 119.62 9.58214ZM53.1017 14.0315C54.2916 14.8468 54.8358 16.1986 54.8396 18.3483C54.8438 20.6758 54.3614 21.9902 53.1407 22.9784C52.4959 23.5001 52.358 23.5352 50.9734 23.5303C49.6717 23.5258 49.4074 23.4663 48.7652 23.0347C47.9362 22.4777 47.5118 21.8432 47.1332 20.5954C46.4668 18.3994 47.1745 15.3827 48.6287 14.22C49.427 13.5816 49.8278 13.4793 51.2607 13.5486C52.1778 13.593 52.6375 13.7135 53.1017 14.0315ZM75.6455 14.1448C76.0093 14.4392 76.4351 14.9188 76.5919 15.2105C77.9682 17.7726 77.248 22.1759 75.29 23.1689C73.9263 23.8606 71.8667 23.685 70.7979 22.7859C69.7717 21.9223 69.4348 20.8975 69.4348 18.6412C69.4348 17.0439 69.5042 16.5029 69.7842 15.9221C70.4977 14.4413 70.8327 14.123 72.2445 13.5852C72.394 13.5281 73.0716 13.5103 73.7501 13.5453C74.7935 13.5995 75.0859 13.692 75.6455 14.1448ZM108.777 14.1016C109.737 14.8343 110.194 15.9905 110.279 17.9024C110.383 20.2731 109.901 21.7234 108.653 22.7915C106.914 24.2803 104.493 23.7036 103.496 21.5628C103.125 20.7652 103.064 20.3584 103.063 18.6586C103.061 16.9215 103.116 16.5655 103.517 15.7186C103.974 14.752 104.878 13.8585 105.643 13.6184C105.868 13.5477 106.524 13.5197 107.101 13.5564C107.887 13.6064 108.306 13.7427 108.777 14.1016Z" fill="url(#paint0_linear_719_245090)"/>

</svg>
