<svg width="10" height="17" viewBox="0 0 10 17" fill="none" xmlns="http://www.w3.org/2000/svg">
<path d="M9.15683 1.3669C9.06491 1.27474 8.95571 1.20163 8.83548 1.15174C8.71526 1.10185 8.58637 1.07617 8.45621 1.07617C8.32604 1.07617 8.19716 1.10185 8.07693 1.15174C7.95671 1.20163 7.84751 1.27474 7.75558 1.3669L1.17683 7.94565C1.10344 8.01889 1.04522 8.10588 1.00549 8.20165C0.965761 8.29743 0.945312 8.40009 0.945312 8.50377C0.945312 8.60746 0.965761 8.71012 1.00549 8.80589C1.04522 8.90166 1.10344 8.98866 1.17683 9.0619L7.75558 15.6406C8.1435 16.0286 8.76892 16.0286 9.15683 15.6406C9.54475 15.2527 9.54475 14.6273 9.15683 14.2394L3.42516 8.49982L9.16475 2.76023C9.54475 2.38023 9.54475 1.7469 9.15683 1.3669Z" fill="#1E232C" stroke="#1E232C" stroke-width="0.2"/>
</svg>
