<svg width="22" height="22" viewBox="0 0 22 22" fill="none" xmlns="http://www.w3.org/2000/svg">
<path fill-rule="evenodd" clip-rule="evenodd" d="M8.2141 7.71772H12.2376V9.72188C12.8172 8.56922 14.3035 7.53355 16.5363 7.53355C20.8165 7.53355 21.8327 9.82805 21.8327 14.0379V21.8346H17.4993V14.9966C17.4993 12.5992 16.9198 11.2472 15.4443 11.2472C13.3978 11.2472 12.5474 12.7043 12.5474 14.9956V21.8346H8.2141V7.71772ZM0.783516 21.6505H5.11685V7.53355H0.783516V21.6505ZM5.7376 2.93047C5.73776 3.29368 5.66573 3.65331 5.52568 3.98844C5.38564 4.32357 5.18039 4.62752 4.92185 4.88264C4.39795 5.40331 3.68881 5.69476 2.95018 5.69297C2.21285 5.69247 1.50535 5.40177 0.980682 4.88372C0.723078 4.62774 0.518517 4.32344 0.378721 3.98827C0.238926 3.65309 0.166643 3.29363 0.166016 2.93047C0.166016 2.19705 0.458516 1.49505 0.981766 0.977219C1.50597 0.458474 2.21378 0.167645 2.95127 0.167969C3.6901 0.167969 4.3986 0.459386 4.92185 0.977219C5.44402 1.49505 5.7376 2.19705 5.7376 2.93047Z" fill="#1976D2"/>
</svg>
